<?xml version="1.0" encoding="UTF-8" standalone="no"?>
<svg
   width="16"
   height="16"
   viewBox="0 0 16 16"
   version="1.1"
   id="svg8"
   inkscape:version="1.2.1 (9c6d41e410, 2022-07-14)"
   sodipodi:docname="stabolb.svg"
   inkscape:export-filename="..\..\..\..\..\..\..\..\Downloads\stabicon.png"
   inkscape:export-xdpi="18"
   inkscape:export-ydpi="18"
   xmlns:inkscape="http://www.inkscape.org/namespaces/inkscape"
   xmlns:sodipodi="http://sodipodi.sourceforge.net/DTD/sodipodi-0.dtd"
   xmlns="http://www.w3.org/2000/svg"
   xmlns:svg="http://www.w3.org/2000/svg"
   xmlns:rdf="http://www.w3.org/1999/02/22-rdf-syntax-ns#"
   xmlns:cc="http://creativecommons.org/ns#"
   xmlns:dc="http://purl.org/dc/elements/1.1/">
  <defs
     id="defs2" />
  <sodipodi:namedview
     id="base"
     pagecolor="#ffffff"
     bordercolor="#666666"
     borderopacity="1.0"
     inkscape:pageopacity="0.0"
     inkscape:pageshadow="2"
     inkscape:zoom="19.528717"
     inkscape:cx="24.220741"
     inkscape:cy="16.027679"
     inkscape:document-units="mm"
     inkscape:current-layer="layer1"
     inkscape:document-rotation="0"
     showgrid="false"
     showguides="false"
     inkscape:window-width="2560"
     inkscape:window-height="1371"
     inkscape:window-x="-8"
     inkscape:window-y="-8"
     inkscape:window-maximized="1"
     units="px"
     inkscape:pagecheckerboard="0"
     inkscape:showpageshadow="2"
     inkscape:deskcolor="#d1d1d1" />
  <metadata
     id="metadata5">
    <rdf:RDF>
      <cc:Work
         rdf:about="">
        <dc:format>image/svg+xml</dc:format>
        <dc:type
           rdf:resource="http://purl.org/dc/dcmitype/StillImage" />
      </cc:Work>
    </rdf:RDF>
  </metadata>
  <g
     inkscape:label="Layer 1"
     inkscape:groupmode="layer"
     id="layer1"
     style="display:inline">
    <g
       id="g1658"
       transform="matrix(0.47400578,0,0,0.47400578,0.04250826,0.00485142)">
      <path
         style="fill:#ffe958;fill-opacity:1;stroke:#bd6801;stroke-width:1.4;stroke-linecap:butt;stroke-linejoin:miter;stroke-dasharray:none;stroke-opacity:1"
         d="M 31.884135,21.117389 C 32.36825,5.7568053 22.629207,0.96099495 15.626333,1.0304183 3.2540825,1.1530574 1.8890593,10.645711 2.3077206,14.160722 c 0.1740221,1.461082 1.0988652,3.812357 0.5126261,5.328308 -0.2415478,0.624627 -0.4099528,1.424865 -0.2572057,1.948724 1.7471699,5.992153 22.887387,7.382455 28.736088,1.163763 0.461655,-0.490853 0.566192,-0.890306 0.584906,-1.484128 z"
         id="path42-1"
         sodipodi:nodetypes="sssssss" />
      <ellipse
         style="fill:#2f2f2f;fill-opacity:1;stroke-width:0.412064"
         id="path55-2"
         cx="-13.218825"
         cy="11.709027"
         rx="1.7116611"
         ry="2.0382142"
         transform="matrix(-0.99743687,0.07155196,0.10156617,0.99482879,0,0)" />
      <ellipse
         style="fill:#2f2f2f;fill-opacity:1;stroke-width:0.403851"
         id="path55-6-7"
         cx="-17.548367"
         cy="17.951521"
         rx="1.6639807"
         ry="2.0138793"
         transform="matrix(-0.90850776,0.41786799,0.40120873,0.91598666,0,0)" />
      <path
         style="fill:#2f2f2f;fill-opacity:1;stroke:none;stroke-width:0.230295px;stroke-linecap:butt;stroke-linejoin:miter;stroke-opacity:1"
         d="m 18.537891,11.374707 c -0.536392,0.02532 -0.69001,0.892342 -0.35583,1.27397 0.736862,0.841484 0.965382,1.750337 1.587003,2.525695 0.145598,0.181605 0.666314,0.479943 1.030539,-0.04846 0.364242,-0.528453 0.633247,-1.769564 0.980778,-2.422117 0.417555,-0.784022 0.02221,-1.69003 -0.55158,-1.643914 -1.095678,0.08807 -1.237252,0.246253 -2.69091,0.314823 z"
         id="path118-0"
         sodipodi:nodetypes="sssssss" />
      <rect
         style="fill:#242b30;fill-opacity:1;stroke:#cdd7de;stroke-width:1.4;stroke-linecap:round;stroke-dasharray:none;stroke-opacity:1"
         id="rect408"
         width="10.208316"
         height="4.7603836"
         x="-20.023033"
         y="-7.6141486"
         transform="matrix(-0.70711197,-0.70710159,0.70711197,-0.70710159,0,0)"
         ry="0.98986024" />
      <path
         style="fill:#cdd7de;fill-opacity:1;stroke:#242b30;stroke-width:1.4;stroke-linecap:butt;stroke-linejoin:miter;stroke-dasharray:none;stroke-opacity:1"
         d="M 26.134635,32.374738 C 23.571951,26.914641 18.517435,22.05918 14.157869,17.874443 13.647227,17.38428 13.234828,16.924484 12.368396,17.790903 l -4.0022226,4.002164 c -0.8386512,0.838639 -0.6677969,1.534498 -7.207e-4,2.066964 4.9941423,3.986368 9.8969153,10.340262 17.7691823,8.514706 z"
         id="path8503"
         sodipodi:nodetypes="cssssc" />
    </g>
  </g>
</svg>
